# AST/ASF file generated using VICON BodyLanguage
# -----------------------------------------------
:version 1.10
:name VICON
:units
  mass 1.0
  length 0.45
  angle deg
:documentation
   .ast/.asf automatically generated from VICON data using
   VICON BodyBuilder and BodyLanguage model FoxedUp or BRILLIANT.MOD
:root
   order TX TY TZ RX RY RZ
   axis XYZ
   position 0 0 0  
   orientation 0 0 0 
:bonedata
  begin
     id 1 
     name lhipjoint
     direction 0.707368 -0.647095 0.284426 
     length 2.60678 
     axis 0 0 0  XYZ
  end
  begin
     id 2 
     name lfemur
     direction 0.34202 -0.939693 0  
     length 6.63812  
     axis 0 0 20  XYZ
    dof rx ry rz
    limits (-160.0 20.0)
           (-70.0 70.0)
           (-60.0 70.0)
  end
  begin
     id 3 
     name ltibia
     direction 0.34202 -0.939693 0   
     length 7.51178   
     axis 0 0 20   XYZ
    dof rx
    limits (-10.0 170.0)
  end
  begin
     id 4 
     name lfoot
     direction 0.121251 -0.333133 0.935051   
     length 1.83716   
     axis -90 7.62852e-016 20   XYZ
    dof rx rz
    limits (-45.0 90.0)
           (-70.0 20.0)
  end
  begin
     id 5 
     name ltoes
     direction 1.53611e-011 -4.21962e-011 1   
     length 0.916133   
     axis -90 7.62852e-016 20   XYZ
    dof rx
    limits (-90.0 20.0)
  end
  begin
     id 6 
     name rhipjoint
     direction -0.692419 -0.660507 0.290321   
     length 2.55385  
     axis 0 0 0  XYZ 
  end
  begin
     id 7 
     name rfemur
     direction -0.34202 -0.939693 0   
     length 7.29079   
     axis 0 0 -20   XYZ
    dof rx ry rz
    limits (-160.0 20.0)
           (-70.0 70.0)
           (-70.0 60.0)
  end
  begin
     id 8 
     name rtibia
     direction -0.34202 -0.939693 0   
     length 7.47143   
     axis 0 0 -20   XYZ
    dof rx
    limits (-10.0 170.0)
 end
 begin
     id 9 
     name rfoot
     direction -0.119907 -0.329441 0.936532   
     length 1.79439  
     axis -90 -7.62852e-016 -20   XYZ
    dof rx rz
    limits (-45.0 90.0)
           (-20.0 70.0)
  end
  begin
     id 10 
     name rtoes
     direction -1.53571e-011 -4.21961e-011 1   
     length 0.896039   
     axis -90 -7.62852e-016 -20   XYZ
    dof rx
    limits (-90.0 20.0)
  end
  begin
     id 11 
     name lowerback
     direction 0.0367721 0.992912 -0.113016   
     length 1.73542   
     axis 0 0 0   XYZ
    dof rx ry rz
    limits (-20.0 45.0)
           (-30.0 30.0)
           (-30.0 30.0)
  end
  begin
     id 12 
     name upperback
     direction -0.000314626 0.990678 0.136227   
     length 1.7514   
     axis 0 0 0   XYZ
    dof rx ry rz
    limits (-20.0 45.0)
           (-30.0 30.0)
           (-30.0 30.0)
  end
  begin
     id 13 
     name thorax
     direction -0.0226159 0.981151 0.191917   
     length 1.71471   
     axis 0 0 0   XYZ
    dof rx ry rz
    limits (-20.0 45.0)
           (-30.0 30.0)
           (-30.0 30.0)
  end
  begin
     id 14 
     name lowerneck
     direction 0.0219333 0.998071 0.0580739   
     length 1.65882   
     axis 0 0 0   XYZ
    dof rx ry rz
    limits (-20.0 45.0)
           (-30.0 30.0)
           (-30.0 30.0)
  end
  begin
     id 15 
     name upperneck
     direction 0.0384529 0.980058 -0.194957   
     length 1.6612   
     axis 0 0 0   XYZ
    dof rx ry rz
    limits (-20.0 45.0)
           (-30.0 30.0)
           (-30.0 30.0)
  end
  begin
     id 16
     name head
     direction 0.00592123 0.997421 -0.0715234  
     length 1.68077  
     axis 0 0 0   XYZ
    dof rx ry rz
    limits (-20.0 45.0)
           (-30.0 30.0)
           (-30.0 30.0)
  end
  begin
     id 17 
     name lclavicle
     direction 0.904803 0.417826 0.0821728  
     length 3.42227  
     axis 0 0 0   XYZ
    dof ry rz
    limits (-20.0 10.0)
           (0.0 20.0)
  end
  begin
     id 18 
     name lhumerus
     direction 1 -4.48965e-011 -2.68786e-027   
     length 5.11878   
     axis -180 -30 -90   XYZ
    dof rx ry rz
    limits (-60.0 90.0)
           (-90.0 90.0)
           (-90.0 90.0)
  end
  begin
     id 19
     name lradius
     direction 1 -4.48965e-011 2.61168e-028   
     length 3.59971   
     axis -180 -30 -90   XYZ
    dof rx
    limits (-10.0 170.0)
  end
  begin
     id 20
     name lwrist
     direction 1 -4.48965e-011 1.58672e-027   
     length 1.79985   
     axis -1.65735e-015 90 90   XYZ
    dof ry
    limits (-180.0 0.0)
 end
  begin
     id 21 
     name lhand
     direction 1 -4.48942e-011 3.17344e-027   
     length 0.62877   
     axis -2.02492e-015 90 90   XYZ
    dof rx rz
    limits (-90.0 90.0)
           (-45.0 45.0)
  end
  begin
     id 22 
     name lfingers
     direction 1 -4.49011e-011 6.34687e-027   
     length 0.506931   
     axis -4.04985e-015 90 90   XYZ
    dof rx
    limits (0.0 90.0)
  end
  begin
     id 23
     name lthumb
     direction 0.707107 -6.34982e-011 0.707107   
     length 0.727854   
     axis -90 45 2.85299e-015   XYZ
    dof rx rz
    limits (-45.0 45.0)
           (-45.0 45.0)
  end
  begin
     id 24 
     name rclavicle
     direction -0.945647 0.32488 0.0143075   
     length 3.52737  
     axis 0 0 0   XYZ 
    dof ry rz
    limits (-10.0 20.0)
           (-20.0 0.0)
  end
  begin
     id 25 
     name rhumerus
     direction -1 -4.48962e-011 1.92182e-027  
     length 5.4902   
     axis -180 30 90   XYZ
    dof rx ry rz
    limits (-90.0 60.0)
           (-90.0 90.0)
           (-90.0 90.0)
  end
  begin
     id 26 
     name rradius
     direction -1 -4.48967e-011 -5.97193e-028   
     length 3.20659   
     axis -180 30 90   XYZ
    dof rx
    limits (-10.0 170.0)
  end
  begin
     id 27 
     name rwrist
     direction -1 -4.48964e-011 1.58672e-027   
     length 1.6033   
     axis -1.65735e-015 -90 -90   XYZ
    dof ry
    limits (-180.0 0.0)
  end
  begin
     id 28
     name rhand
     direction -1 -4.49006e-011 3.17344e-027   
     length 0.691885   
     axis -2.02492e-015 -90 -90   XYZ
    dof rx rz
    limits (-90.0 90.0)
           (-45.0 45.0)
  end
  begin
     id 29
     name rfingers
     direction -1 -4.48908e-011 6.34687e-027   
     length 0.557815   
     axis -4.04985e-015 -90 -90   XYZ
    dof rx
    limits (0.0 90.0)
  end
  begin
     id 30
     name rthumb
     direction -0.707107 -6.34999e-011 0.707107   
     length 0.800915   
     axis -90 -45 -2.85299e-015   XYZ
    dof rx rz
    limits (-45.0 45.0)
           (-45.0 45.0)
  end
:hierarchy
  begin
    root lhipjoint rhipjoint lowerback
    lhipjoint lfemur
    lfemur ltibia
    ltibia lfoot
    lfoot ltoes
    rhipjoint rfemur
    rfemur rtibia
    rtibia rfoot
    rfoot rtoes
    lowerback upperback
    upperback thorax
    thorax lowerneck lclavicle rclavicle
    lowerneck upperneck
    upperneck head
    lclavicle lhumerus
    lhumerus lradius
    lradius lwrist
    lwrist lhand lthumb
    lhand lfingers
    rclavicle rhumerus
    rhumerus rradius
    rradius rwrist
    rwrist rhand rthumb
    rhand rfingers
  end

#!OML:ASF I:\Actors\actors\Patient Classification 1\Patient 1\Session 1\Subject1.ASF
:FULLY-SPECIFIED
:DEGREES
129
root 0.218906 17.4897 8.26171 9.56907 -2.77014 -7.43857
lowerback -0.96641 1.09083 5.07439
upperback -9.8847 1.81636 1.47399
thorax -9.8426 0.537044 -1.39306
lowerneck -7.1161 -7.5322 -5.33176
upperneck 17.7606 -11.0648 7.45635
head 7.32672 -5.08959 2.30597
rclavicle -1.91827e-014 6.75868e-015
rhumerus -49.2492 -3.89367 -84.5987
rradius 52.6325
rwrist 4.17805
rhand 10.8276 -40.3285
rfingers 7.12502
rthumb 35.9108 -66.6669
lclavicle -1.91827e-014 6.75868e-015
lhumerus -47.4272 6.50387 85.4824
lradius 43.4192
lwrist 11.2353
lhand -13.704 -3.44883
lfingers 7.12502
lthumb 12.4145 26.1625
rfemur -4.19616 27.815 21.1892
rtibia 1.89252
rfoot -12.2815 -26.5369
rtoes 1.75453
lfemur 4.70134 -44.4627 -13.3557
ltibia -4.89823
lfoot -26.2681 56.3796
ltoes 19.7509
130
root 0.217124 17.4902 8.26189 9.57689 -2.74658 -7.42777
lowerback -0.964481 1.1157 5.10466
upperback -9.91942 1.85238 1.46323
thorax -9.88018 0.550329 -1.42403
lowerneck -7.22332 -7.30961 -5.00252
upperneck 17.4324 -10.7547 7.38884
head 7.19523 -4.92871 2.26264
rclavicle -1.04362e-015 -1.94809e-014
rhumerus -49.3659 -3.52475 -85.0176
rradius 53.3308
rwrist 3.27208
rhand 12.2971 -40.5162
rfingers 7.12502
rthumb 37.3017 -66.502
lclavicle -1.04362e-015 -1.94809e-014
lhumerus -47.2745 6.04456 85.9052
lradius 43.627
lwrist 11.4304
lhand -13.563 -4.63291
lfingers 7.12502
lthumb 12.5505 24.9701
rfemur -4.24058 27.7475 21.1696
rtibia 1.94696
rfoot -12.3299 -26.5016
rtoes 1.77302
lfemur 4.65969 -44.4366 -13.3251
ltibia -4.89947
lfoot -26.3491 56.316
ltoes 19.9408
131
root 0.214957 17.4909 8.26238 9.58497 -2.70969 -7.42511
lowerback -0.976041 1.11593 5.12059
upperback -9.95963 1.85474 1.46548
thorax -9.9187 0.548826 -1.4305
lowerneck -7.30561 -7.04628 -4.68798
upperneck 17.1269 -10.3997 7.37044
head 7.06902 -4.74376 2.24194
rclavicle 1.73937e-015 5.96354e-015
rhumerus -49.4571 -3.04964 -85.5044
rradius 53.8752
rwrist 2.28539
rhand 11.4977 -40.5086
rfingers 7.12502
rthumb 36.5455 -66.6893
lclavicle 1.73937e-015 5.96354e-015
lhumerus -47.0379 5.66813 86.3009
lradius 43.733
lwrist 11.5741
lhand -13.4624 -5.175
lfingers 7.12502
lthumb 12.6475 24.4221
rfemur -4.26472 27.7373 21.1688
rtibia 1.97984
rfoot -12.3626 -26.5376
rtoes 1.77212
lfemur 4.61005 -44.3929 -13.2731
ltibia -4.90233
lfoot -26.1018 56.2842
ltoes 19.684
132
root 0.213029 17.4911 8.2643 9.59079 -2.67066 -7.44691
lowerback -1.01127 1.11565 5.17858
upperback -10.0023 1.85681 1.46902
thorax -9.9454 0.543898 -1.45837
lowerneck -7.21176 -6.76352 -4.54097
upperneck 16.7097 -10.034 7.58309
head 6.89753 -4.55323 2.32893
rclavicle 1.24737e-014 -3.97569e-015
rhumerus -49.5102 -2.53473 -86.004
rradius 54.3698
rwrist 1.51325
rhand 11.3191 -40.7253
rfingers 7.12502
rthumb 36.3763 -66.9484
lclavicle 1.24737e-014 -3.97569e-015
lhumerus -46.8073 5.27725 86.7039
lradius 43.8222
lwrist 11.6133
lhand -13.3364 -5.24231
lfingers 7.12502
lthumb 12.7689 24.3472
rfemur -4.27999 27.6836 21.1985
rtibia 2.01701
rfoot -12.3963 -26.4993
rtoes 1.81392
lfemur 4.58993 -44.3792 -13.2136
ltibia -4.91911
lfoot -25.8213 56.2998
ltoes 19.3053
133
root 0.21174 17.4909 8.26764 9.56952 -2.64103 -7.45857
lowerback -1.06663 1.13614 5.24882
upperback -10.015 1.88314 1.4538
thorax -9.9237 0.550493 -1.51428
lowerneck -7.24499 -6.54059 -4.41562
upperneck 16.412 -9.7426 7.73289
head 6.79005 -4.39888 2.38558
rclavicle 9.0447e-015 1.63003e-014
rhumerus -49.4516 -2.11429 -86.4462
rradius 54.8189
rwrist 1.24356
rhand 11.9538 -41.2618
rfingers 7.12502
rthumb 36.977 -67.3322
lclavicle 9.0447e-015 1.63003e-014
lhumerus -46.5757 4.84933 87.1219
lradius 43.8683
lwrist 11.5451
lhand -13.2349 -5.38883
lfingers 7.12502
lthumb 12.8668 24.1946
rfemur -4.24765 27.6168 21.2345
rtibia 2.03955
rfoot -12.4409 -26.4308
rtoes 1.79014
lfemur 4.64381 -44.4089 -13.2305
ltibia -4.93642
lfoot -25.6993 56.3395
ltoes 19.2163
134
root 0.210065 17.4912 8.27084 9.5374 -2.60321 -7.44604
lowerback -1.11493 1.14999 5.26632
upperback -10.027 1.89921 1.44633
thorax -9.9069 0.556888 -1.53206
lowerneck -7.34325 -6.35075 -4.25912
upperneck 16.2038 -9.48075 7.73584
head 6.7161 -4.26469 2.38431
rclavicle -1.67973e-014 -1.15295e-014
rhumerus -49.3439 -1.73848 -86.8307
rradius 55.2662
rwrist 1.60604
rhand 13.3079 -42.3042
rfingers 7.12502
rthumb 38.2566 -68.0332
lclavicle -1.67973e-014 -1.15295e-014
lhumerus -46.2822 4.44307 87.5293
lradius 43.74
lwrist 11.2987
lhand -13.2208 -5.46486
lfingers 7.12502
lthumb 12.8803 24.1177
rfemur -4.19083 27.5707 21.257
rtibia 2.05446
rfoot -12.5201 -26.3989
rtoes 1.85512
lfemur 4.68332 -44.3757 -13.271
ltibia -4.92559
lfoot -25.4433 56.314
ltoes 19.0018
135
root 0.207268 17.4911 8.27461 9.50092 -2.55818 -7.45726
lowerback -1.17665 1.15801 5.28712
upperback -10.0556 1.9096 1.46739
thorax -9.90245 0.561183 -1.52057
lowerneck -7.20337 -6.14329 -4.08491
upperneck 15.831 -9.17833 7.67736
head 6.54203 -4.12489 2.37253
rclavicle -1.50082e-014 3.97569e-015
rhumerus -49.2419 -1.21473 -87.3086
rradius 55.1188
rwrist 0.65689
rhand 11.2066 -40.9298
rfingers 7.12502
rthumb 36.2699 -67.1795
lclavicle -1.50082e-014 3.97569e-015
lhumerus -45.9856 3.99087 87.9585
lradius 43.4677
lwrist 10.9006
lhand -13.3024 -5.51218
lfingers 7.12502
lthumb 12.8017 24.0753
rfemur -4.13055 27.4905 21.3168
rtibia 2.07543
rfoot -12.5595 -26.3378
rtoes 1.88335
lfemur 4.71422 -44.2874 -13.2683
ltibia -4.91381
lfoot -25.0781 56.2485
ltoes 18.5447
136
root 0.203782 17.4901 8.28013 9.44531 -2.52309 -7.52574
lowerback -1.26435 1.17078 5.36311
upperback -10.0738 1.92887 1.52132
thorax -9.8705 0.567705 -1.50462
lowerneck -6.95734 -5.91622 -3.88391
upperneck 15.3514 -8.83584 7.55705
head 6.31054 -3.97366 2.34327
rclavicle -5.86415e-015 -1.45113e-014
rhumerus -49.0786 -0.726498 -87.6637
rradius 55.0238
rwrist 0.628791
rhand 9.54589 -39.5703
rfingers 7.12502
rthumb 34.6955 -66.1969
lclavicle -5.86415e-015 -1.45113e-014
lhumerus -45.6848 3.53246 88.4105
lradius 43.0705
lwrist 10.3607
lhand -13.3689 -5.64954
lfingers 7.12502
lthumb 12.7376 23.9419
rfemur -4.02666 27.4698 21.4666
rtibia 2.07852
rfoot -12.5484 -26.3391
rtoes 1.75753
lfemur 4.84239 -44.304 -13.2568
ltibia -4.94524
lfoot -25.0263 56.2612
ltoes 18.4183
137
root 0.200708 17.4889 8.28576 9.39949 -2.4978 -7.6046
lowerback -1.35665 1.16698 5.45065
upperback -10.0951 1.92698 1.59049
thorax -9.84134 0.563469 -1.47725
lowerneck -6.83304 -5.69303 -3.76633
upperneck 15.0325 -8.50897 7.49252
head 6.16011 -3.8234 2.33788
rclavicle -1.39149e-015 2.04748e-014
rhumerus -48.834 -0.190124 -88.0496
rradius 54.8191
rwrist 0.772721
rhand 9.97244 -39.9721
rfingers 7.12502
rthumb 35.1002 -66.5047
lclavicle -1.39149e-015 2.04748e-014
lhumerus -45.273 3.26691 88.7799
lradius 42.353
lwrist 9.52245
lhand -13.385 -5.93733
lfingers 7.12502
lthumb 12.722 23.6551
rfemur -3.93296 27.4893 21.6199
rtibia 2.07281
rfoot -12.5216 -26.3908
rtoes 1.60689
lfemur 4.98405 -44.3684 -13.2391
ltibia -4.99763
lfoot -25.1279 56.3112
ltoes 18.5231
